<svg width="507" height="350" viewBox="0 0 507 350" fill="none" xmlns="http://www.w3.org/2000/svg">
<rect x="2.5" y="2.5" width="95" height="95" rx="12.5" fill="#E20000" stroke="#BABABA" stroke-width="5"/>
<rect x="113.5" y="2.5" width="95" height="345" rx="12.5" fill="#E20000" stroke="#BABABA" stroke-width="5"/>
<path d="M319.5 5V2.5H317H237C230.096 2.5 224.5 8.09644 224.5 15V95V97.5H227H317H319.5V95V5Z" fill="#E20000" stroke="#BABABA" stroke-width="5"/>
<path d="M322 2.5H319.5V5V95V97.5H322H492C498.904 97.5 504.5 91.9036 504.5 85V15C504.5 8.09644 498.904 2.5 492 2.5H322Z" fill="#040404" stroke="#BABABA" stroke-width="5"/>
<mask id="path-5-outside-1_1_17" maskUnits="userSpaceOnUse" x="317" y="250" width="190" height="100" fill="black">
<rect fill="white" x="317" y="250" width="190" height="100"/>
<path d="M317 255H492C497.523 255 502 259.477 502 265V335C502 340.523 497.523 345 492 345H317V255Z"/>
</mask>
<path d="M317 255H492C497.523 255 502 259.477 502 265V335C502 340.523 497.523 345 492 345H317V255Z" fill="#040404"/>
<path d="M317 250H492C500.284 250 507 256.716 507 265H497C497 262.239 494.761 260 492 260H317V250ZM507 335C507 343.284 500.284 350 492 350H317V340H492C494.761 340 497 337.761 497 335H507ZM317 345V255V345ZM492 250C500.284 250 507 256.716 507 265V335C507 343.284 500.284 350 492 350V340C494.761 340 497 337.761 497 335V265C497 262.239 494.761 260 492 260V250Z" fill="#BABABA" mask="url(#path-5-outside-1_1_17)"/>
<mask id="path-7-outside-2_1_17" maskUnits="userSpaceOnUse" x="222" y="95" width="95" height="255" fill="black">
<rect fill="white" x="222" y="95" width="95" height="255"/>
<path d="M227 100H317V345H302C260.579 345 227 311.421 227 270V100Z"/>
</mask>
<path d="M227 100H317V345H302C260.579 345 227 311.421 227 270V100Z" fill="#040404"/>
<path d="M222 95H317V105H232L222 95ZM317 350H302C257.817 350 222 314.183 222 270H232C232 308.66 263.34 340 302 340H317V350ZM302 350C257.817 350 222 314.183 222 270V95L232 105V270C232 308.66 263.34 340 302 340V350ZM317 100V345V100Z" fill="#BABABA" mask="url(#path-7-outside-2_1_17)"/>
<rect x="317" y="100" width="5" height="150" fill="#BABABA"/>
</svg>
