<svg width="81" height="82" viewBox="0 0 81 82" fill="none" xmlns="http://www.w3.org/2000/svg">
<path d="M16.875 57.6956C16.875 59.4858 17.5862 61.2027 18.852 62.4686C20.1179 63.7345 21.8348 64.4456 23.625 64.4456C25.4152 64.4456 27.1321 63.7345 28.398 62.4686C29.6638 61.2027 30.375 59.4858 30.375 57.6956C30.375 55.9054 29.6638 54.1885 28.398 52.9226C27.1321 51.6568 25.4152 50.9456 23.625 50.9456C21.8348 50.9456 20.1179 51.6568 18.852 52.9226C17.5862 54.1885 16.875 55.9054 16.875 57.6956Z" stroke="black" stroke-width="2.5" stroke-linecap="round" stroke-linejoin="round"/>
<path d="M50.625 57.6956C50.625 59.4858 51.3362 61.2027 52.602 62.4686C53.8679 63.7345 55.5848 64.4456 57.375 64.4456C59.1652 64.4456 60.8821 63.7345 62.148 62.4686C63.4138 61.2027 64.125 59.4858 64.125 57.6956C64.125 55.9054 63.4138 54.1885 62.148 52.9226C60.8821 51.6568 59.1652 50.9456 57.375 50.9456C55.5848 50.9456 53.8679 51.6568 52.602 52.9226C51.3362 54.1885 50.625 55.9054 50.625 57.6956Z" stroke="black" stroke-width="2.5" stroke-linecap="round" stroke-linejoin="round"/>
<path d="M16.875 57.6956H10.125V20.5706C10.125 19.6755 10.4806 18.8171 11.1135 18.1841C11.7464 17.5512 12.6049 17.1956 13.5 17.1956H43.875V57.6956M30.375 57.6956H50.625M64.125 57.6956H70.875V37.4456M70.875 37.4456H43.875M70.875 37.4456L60.75 20.5706H43.875" stroke="black" stroke-width="2.5" stroke-linecap="round" stroke-linejoin="round"/>
</svg>
